# Blender 5.0.0
# www.blender.org
mtllib orta seviye zemin.mtl
o Uçak
v -15.000000 0.000000 15.000000
v 15.000000 0.000000 15.000000
v -15.000000 0.000000 -15.000000
v 15.000000 0.000000 -15.000000
v -15.000000 0.000000 3.000000
v -5.000000 0.000000 15.000000
v -5.000000 0.000000 -15.000000
v -5.000000 0.000000 3.000000
vn -0.0000 1.0000 -0.0000
vt 0.333333 1.000000
vt 0.000000 1.000000
vt 0.000000 0.400000
vt 0.333333 0.400000
vt 1.000000 1.000000
vt 0.333333 0.000000
vt 1.000000 0.000000
vt 0.000000 0.000000
s 0
f 7/1/1 3/2/1 5/3/1 8/4/1
f 4/5/1 7/1/1 8/4/1 6/6/1 2/7/1
f 1/8/1 6/6/1 8/4/1 5/3/1
