# Blender 5.0.0
# www.blender.org
mtllib çit.mtl
o Uçak
v -2.749616 0.462559 -0.349318
v -2.749615 8.701985 -0.349318
v 1.373481 0.462559 -0.349318
v 1.373481 8.701985 -0.349318
v 0.924976 0.459018 -0.557940
v 1.070596 0.458900 -0.561518
v 0.237794 0.459018 -0.557940
v 0.383413 0.458900 -0.561518
v -0.449389 0.459018 -0.557940
v -0.303769 0.458900 -0.561518
v -1.136572 0.459018 -0.557940
v -0.990952 0.458900 -0.561518
v -1.823755 0.459018 -0.557940
v -1.678135 0.458900 -0.561518
v -2.510937 0.459018 -0.557940
v -2.365317 0.458900 -0.561518
v -2.365317 8.698327 -0.561518
v -2.510937 8.698444 -0.557940
v -1.678134 8.698327 -0.561518
v -1.823754 8.698444 -0.557940
v -0.990951 8.698327 -0.561518
v -1.136571 8.698444 -0.557940
v -0.303769 8.698327 -0.561518
v -0.449389 8.698444 -0.557940
v 0.383414 8.698327 -0.561518
v 0.237794 8.698444 -0.557940
v 1.070597 8.698327 -0.561518
v 0.924977 8.698444 -0.557940
v 0.605277 0.461580 -0.406081
v 0.755363 0.461535 -0.409686
v -0.081906 0.461580 -0.406081
v 0.068180 0.461535 -0.409686
v -0.769089 0.461580 -0.406081
v -0.619003 0.461535 -0.409686
v -1.456271 0.461580 -0.406081
v -1.306185 0.461535 -0.409686
v -2.143454 0.461580 -0.406081
v -1.993368 0.461535 -0.409686
v -1.993368 8.700960 -0.409686
v -2.143454 8.701007 -0.406081
v -1.306185 8.700960 -0.409686
v -1.456271 8.701007 -0.406081
v -0.619002 8.700960 -0.409686
v -0.769088 8.701007 -0.406081
v 0.068181 8.700960 -0.409686
v -0.081905 8.701007 -0.406081
v 0.755363 8.700960 -0.409686
v 0.605277 8.701007 -0.406081
vn 0.0246 -0.0000 0.9997
vn -0.5738 -0.0000 0.8190
vn 0.6581 -0.0000 0.7529
vn 0.0240 -0.0000 0.9997
vt 1.000000 0.100036
vt 0.000000 0.100036
vt 0.000000 0.064499
vt 1.000000 0.064499
vt 1.000000 0.266702
vt 0.000000 0.266702
vt 0.000000 0.231166
vt 1.000000 0.231166
vt 1.000000 0.433369
vt 0.000000 0.433369
vt 0.000000 0.397832
vt 1.000000 0.397832
vt 1.000000 0.600036
vt 0.000000 0.600036
vt 0.000000 0.564499
vt 1.000000 0.564499
vt 1.000000 0.766702
vt 0.000000 0.766702
vt 0.000000 0.731166
vt 1.000000 0.731166
vt 1.000000 0.933369
vt 0.000000 0.933369
vt 0.000000 0.897832
vt 1.000000 0.897832
vt 1.000000 1.000000
vt 0.000000 1.000000
vt 0.000000 0.000000
vt 1.000000 0.000000
vt 1.000000 0.185330
vt 0.000000 0.185330
vt 0.000000 0.148843
vt 1.000000 0.148843
vt 1.000000 0.351997
vt 0.000000 0.351997
vt 0.000000 0.315510
vt 1.000000 0.315510
vt 1.000000 0.518664
vt 0.000000 0.518664
vt 0.000000 0.482176
vt 1.000000 0.482176
vt 1.000000 0.685330
vt 0.000000 0.685330
vt 0.000000 0.648843
vt 1.000000 0.648843
vt 1.000000 0.851997
vt 0.000000 0.851997
vt 0.000000 0.815510
vt 1.000000 0.815510
s 0
f 17/1/1 18/4/1 15/3/1 16/2/1
f 19/5/1 20/8/1 13/7/1 14/6/1
f 21/9/1 22/12/1 11/11/1 12/10/1
f 23/13/1 24/16/1 9/15/1 10/14/1
f 25/17/1 26/20/1 7/19/1 8/18/1
f 27/21/1 28/24/1 5/23/1 6/22/1
f 6/22/2 3/26/2 4/25/2 27/21/2
f 1/27/3 15/3/3 18/4/3 2/28/3
f 39/29/4 40/32/4 37/31/4 38/30/4
f 41/33/4 42/36/4 35/35/4 36/34/4
f 43/37/4 44/40/4 33/39/4 34/38/4
f 45/41/4 46/44/4 31/43/4 32/42/4
f 47/45/4 48/48/4 29/47/4 30/46/4
f 8/18/2 29/47/2 48/48/2 25/17/2
f 30/46/3 5/23/3 28/24/3 47/45/3
f 10/14/2 31/43/2 46/44/2 23/13/2
f 32/42/3 7/19/3 26/20/3 45/41/3
f 12/10/2 33/39/2 44/40/2 21/9/2
f 34/38/3 9/15/3 24/16/3 43/37/3
f 14/6/2 35/35/2 42/36/2 19/5/2
f 36/34/3 11/11/3 22/12/3 41/33/3
f 16/2/2 37/31/2 40/32/2 17/1/2
f 38/30/3 13/7/3 20/8/3 39/29/3
