# Blender 5.0.0
# www.blender.org
mtllib kolay zemin 1 .mtl
o Uçak
v 14.000000 0.000000 12.000000
v -14.000000 0.000000 -12.000000
v 14.000000 0.000000 -12.000000
v 6.000000 0.000000 12.000000
v 6.000000 0.000000 -12.000000
v -4.000000 0.000000 12.000000
v -14.000000 0.000000 0.002364
v 6.000000 0.000000 0.002364
v -4.000000 0.000000 0.002364
vn -0.0000 1.0000 -0.0000
vt 0.357143 0.000000
vt 0.714286 0.000000
vt 0.714286 0.499902
vt 0.357143 0.499902
vt -0.000000 0.499902
vt 0.714286 1.000000
vt 0.000000 1.000000
vt 1.000000 0.000000
vt 1.000000 1.000000
s 0
f 6/1/1 4/2/1 8/3/1 9/4/1
f 7/5/1 9/4/1 8/3/1 5/6/1 2/7/1
f 4/2/1 1/8/1 3/9/1 5/6/1 8/3/1
