# Blender 5.0.0
# www.blender.org
mtllib çekiç.mtl
o Küp
v -0.351209 2.350956 0.339438
v -0.351209 7.444898 0.339438
v -0.351209 2.350956 -0.224780
v -0.351209 7.444898 -0.224780
v 0.312768 2.350956 0.339438
v 0.312768 7.444898 0.339438
v 0.312768 2.350956 -0.224780
v 0.312768 7.444898 -0.224780
vn -1.0000 -0.0000 -0.0000
vn -0.0000 -0.0000 -1.0000
vn 1.0000 -0.0000 -0.0000
vn -0.0000 -0.0000 1.0000
vn -0.0000 -1.0000 -0.0000
vn -0.0000 1.0000 -0.0000
vt 0.375000 0.000000
vt 0.625000 0.000000
vt 0.625000 0.250000
vt 0.375000 0.250000
vt 0.625000 0.500000
vt 0.375000 0.500000
vt 0.625000 0.750000
vt 0.375000 0.750000
vt 0.625000 1.000000
vt 0.375000 1.000000
vt 0.125000 0.500000
vt 0.125000 0.750000
vt 0.875000 0.500000
vt 0.875000 0.750000
s 0
f 1/1/1 2/2/1 4/3/1 3/4/1
f 3/4/2 4/3/2 8/5/2 7/6/2
f 7/6/3 8/5/3 6/7/3 5/8/3
f 5/8/4 6/7/4 2/9/4 1/10/4
f 3/11/5 7/6/5 5/8/5 1/12/5
f 8/5/6 4/13/6 2/14/6 6/7/6
o Küp.001
v 0.538704 6.947387 1.399794
v 0.538704 7.444839 1.399794
v -0.538704 6.947387 1.399794
v -0.538704 7.444839 1.399794
v 0.538704 7.189650 -1.906680
v 0.538704 6.947387 -0.296400
v 0.538704 7.444839 -0.296400
v 0.538704 7.202576 -1.906680
v -0.538704 6.947387 -0.296400
v -0.538704 7.189650 -1.906680
v -0.538704 7.202576 -1.906680
v -0.538704 7.444839 -0.296400
vn -0.0000 -0.0000 1.0000
vn -0.0000 -0.9889 -0.1488
vn -0.0000 0.9889 -0.1488
vn -0.0000 -1.0000 -0.0000
vn 1.0000 -0.0000 -0.0000
vn -0.0000 -0.0000 -1.0000
vn -0.0000 1.0000 -0.0000
vn -1.0000 -0.0000 -0.0000
vt 0.375000 0.750000
vt 0.625000 0.750000
vt 0.625000 1.000000
vt 0.375000 1.000000
vt 0.375000 0.621752
vt 0.125000 0.621752
vt 0.125000 0.500000
vt 0.456168 0.500000
vt 0.625000 0.189124
vt 0.625000 0.581168
vt 0.503248 0.500000
vt 0.503248 0.250000
vt 0.125000 0.750000
vt 0.375000 0.000000
vt 0.625000 0.000000
vt 0.496752 0.250000
vt 0.375000 0.128248
vt 0.875000 0.621752
vt 0.875000 0.750000
s 0
f 11/15/7 9/18/7 10/17/7 12/16/7
f 17/19/8 18/22/8 13/21/8 14/20/8
f 15/23/9 16/26/9 19/25/9 20/24/9
f 14/20/10 9/27/10 11/15/10 17/19/10
f 9/28/11 14/31/11 13/30/11 16/26/11 15/23/11 10/29/11
f 13/30/12 18/22/12 19/25/12 16/26/12
f 20/24/13 12/16/13 10/33/13 15/32/13
f 17/19/14 11/15/14 12/16/14 20/24/14 19/25/14 18/22/14
