# Blender 4.5.3 LTS
# www.blender.org
mtllib çimonto çuvalı .mtl
o Cube
v 0.081169 2.112236 -0.204461
v 0.072650 2.112236 -0.205638
v 0.072650 2.126434 -0.204461
v 0.081715 2.127344 -0.202921
v 0.072650 2.148082 -0.200132
v 0.072650 2.153963 -0.197292
v 0.081169 2.148082 -0.197292
v 0.081715 2.140381 -0.200314
v 0.094158 2.112236 -0.200132
v 0.089537 2.127344 -0.200314
v 0.094158 2.126434 -0.197292
v 0.097686 2.112236 -0.197292
v 0.081169 1.159844 -0.197292
v 0.072650 1.153963 -0.197292
v 0.072650 1.159844 -0.200132
v 0.081715 1.167545 -0.200314
v 0.072650 1.181493 -0.204461
v 0.072650 1.195691 -0.205638
v 0.081169 1.195691 -0.204461
v 0.081715 1.180583 -0.202921
v 0.094158 1.181493 -0.197292
v 0.089537 1.180583 -0.200314
v 0.094158 1.195691 -0.200132
v 0.097686 1.195691 -0.197292
v 0.094158 2.112236 -0.011144
v 0.097686 2.112236 -0.013983
v 0.094158 2.126434 -0.013983
v 0.089537 2.127344 -0.010962
v 0.081169 2.148082 -0.013983
v 0.072650 2.153963 -0.013983
v 0.072650 2.148082 -0.011144
v 0.081715 2.140381 -0.010962
v 0.081169 2.112236 -0.006814
v 0.081715 2.127344 -0.008354
v 0.072650 2.126434 -0.006814
v 0.072650 2.112236 -0.005638
v 0.094158 1.181493 -0.013983
v 0.097686 1.195691 -0.013983
v 0.094158 1.195691 -0.011144
v 0.089537 1.180583 -0.010962
v 0.081169 1.195691 -0.006814
v 0.072650 1.187374 -0.005638
v 0.081715 1.180583 -0.008354
v 0.081169 1.159844 -0.013983
v 0.081715 1.167545 -0.010962
v 0.072650 1.159844 -0.011144
v 0.072650 1.153963 -0.013983
v -0.477277 2.126434 -0.204461
v -0.477277 2.112236 -0.205638
v -0.485796 2.112236 -0.204461
v -0.486342 2.127344 -0.202921
v -0.498785 2.112236 -0.200132
v -0.502314 2.112236 -0.197292
v -0.498785 2.126434 -0.197292
v -0.494165 2.127344 -0.200314
v -0.477277 2.148082 -0.200132
v -0.486342 2.140381 -0.200314
v -0.485796 2.148082 -0.197292
v -0.477277 2.153963 -0.197292
v -0.498785 1.181493 -0.197292
v -0.502314 1.195691 -0.197292
v -0.498785 1.195691 -0.200132
v -0.494165 1.180583 -0.200314
v -0.485796 1.195691 -0.204461
v -0.477277 1.195691 -0.205638
v -0.477277 1.181493 -0.204461
v -0.486342 1.180583 -0.202921
v -0.485796 1.159844 -0.197292
v -0.486342 1.167545 -0.200314
v -0.477277 1.159844 -0.200132
v -0.477277 1.153963 -0.197292
v -0.498785 2.126434 -0.013983
v -0.502314 2.112236 -0.013983
v -0.498785 2.112236 -0.011144
v -0.494165 2.127344 -0.010962
v -0.485796 2.112236 -0.006814
v -0.477277 2.112236 -0.005638
v -0.477277 2.126434 -0.006814
v -0.486342 2.127344 -0.008354
v -0.485796 2.148082 -0.013983
v -0.486342 2.140381 -0.010962
v -0.477277 2.148082 -0.011144
v -0.477277 2.153963 -0.013983
v -0.485796 1.159844 -0.013983
v -0.477277 1.153963 -0.013983
v -0.477277 1.159844 -0.011144
v -0.486342 1.167545 -0.010962
v -0.477277 1.187374 -0.005638
v -0.485796 1.195691 -0.006814
v -0.486342 1.180583 -0.008354
v -0.498785 1.181493 -0.013983
v -0.494165 1.180583 -0.010962
v -0.498785 1.195691 -0.011144
v -0.502314 1.195691 -0.013983
vn 0.1476 0.0886 -0.9851
vn 0.2913 0.3889 -0.8740
vn 0.5881 0.1586 -0.7931
vn 0.2913 -0.3889 -0.8740
vn 0.1476 -0.0886 -0.9851
vn 0.5881 -0.1586 -0.7931
vn 0.5881 0.1586 0.7931
vn 0.2913 0.3889 0.8740
vn 0.1476 0.0886 0.9851
vn 0.5881 -0.1586 0.7931
vn 0.2228 -0.0909 0.9706
vn 0.2913 -0.3889 0.8740
vn -0.1476 0.0886 -0.9851
vn -0.5881 0.1586 -0.7931
vn -0.2913 0.3889 -0.8740
vn -0.5881 -0.1586 -0.7931
vn -0.1476 -0.0886 -0.9851
vn -0.2913 -0.3889 -0.8740
vn -0.5881 0.1586 0.7931
vn -0.1476 0.0886 0.9851
vn -0.2913 0.3889 0.8740
vn -0.2913 -0.3889 0.8740
vn -0.2228 -0.0909 0.9706
vn -0.5881 -0.1586 0.7931
vn 0.3151 0.0850 -0.9453
vn 0.1454 0.1940 -0.9702
vn 0.5609 0.3365 -0.7564
vn 0.5609 -0.3365 -0.7564
vn 0.1454 -0.1940 -0.9702
vn 0.3151 -0.0850 -0.9453
vn 0.3151 0.0850 0.9453
vn 0.5609 0.3365 0.7564
vn 0.1454 0.1940 0.9702
vn 0.5609 -0.3365 0.7564
vn 0.3151 -0.0850 0.9453
vn 0.1454 -0.1940 0.9702
vn -0.1454 0.1940 -0.9702
vn -0.3151 0.0850 -0.9453
vn -0.5609 0.3365 -0.7564
vn -0.5609 -0.3365 -0.7564
vn -0.3151 -0.0850 -0.9453
vn -0.1454 -0.1940 -0.9702
vn -0.5609 0.3365 0.7564
vn -0.3151 0.0850 0.9453
vn -0.1454 0.1940 0.9702
vn -0.5609 -0.3365 0.7564
vn -0.1454 -0.1940 0.9702
vn -0.3151 -0.0850 0.9453
vn -0.5681 -0.8229 -0.0000
vn -0.9705 -0.2412 -0.0000
vn -0.0000 -0.4348 -0.9005
vn -0.0000 -0.0826 -0.9966
vn 0.6269 -0.0000 -0.7791
vn 0.1368 -0.0000 -0.9906
vn -0.1368 -0.0000 0.9906
vn -0.6269 -0.0000 0.7791
vn 0.1368 -0.0000 0.9906
vn 0.6269 -0.0000 0.7791
vn -0.1368 -0.0000 -0.9906
vn -0.6269 -0.0000 -0.7791
vn -0.0000 0.4348 0.9005
vn -0.0000 0.0826 0.9966
vn 0.5681 0.8229 -0.0000
vn 0.9705 0.2412 -0.0000
vn -0.0000 -0.4348 0.9005
vn -0.5681 0.8229 -0.0000
vn -0.9705 0.2412 -0.0000
vn -0.0000 0.4348 -0.9005
vn -0.0000 0.0826 -0.9966
vn 0.5681 -0.8229 -0.0000
vn 0.9705 -0.2412 -0.0000
vn 0.3162 -0.0000 -0.9487
vn 0.3107 0.1864 -0.9321
vn -0.0000 -0.0000 -1.0000
vn -0.0000 0.1961 -0.9806
vn 0.8575 0.5145 -0.0000
vn -0.0000 1.0000 -0.0000
vn 1.0000 -0.0000 -0.0000
vn 0.8575 -0.5145 -0.0000
vn 0.3107 -0.1864 -0.9321
vn -0.0000 -0.1961 -0.9806
vn -0.0000 -1.0000 -0.0000
vn 0.3162 -0.0000 0.9487
vn 0.3107 0.1864 0.9321
vn -0.0000 0.1961 0.9806
vn -0.0000 -0.0000 1.0000
vn 0.3107 -0.1864 0.9321
vn -0.0000 -0.1961 0.9806
vn -0.3107 0.1864 -0.9321
vn -0.3162 -0.0000 -0.9487
vn -1.0000 -0.0000 -0.0000
vn -0.8575 0.5145 -0.0000
vn -0.8575 -0.5145 -0.0000
vn -0.3107 -0.1864 -0.9321
vn -0.3107 0.1864 0.9321
vn -0.3162 -0.0000 0.9487
vn -0.3107 -0.1864 0.9321
vt 0.614563 0.494589
vt 0.614562 0.489571
vt 0.619495 0.492298
vt 0.619963 0.498277
vt 0.630042 0.502542
vt 0.635008 0.509594
vt 0.630106 0.509780
vt 0.626686 0.504107
vt 0.614566 0.505406
vt 0.619963 0.504793
vt 0.619519 0.510292
vt 0.614568 0.510424
vt 0.369586 0.510432
vt 0.364568 0.510432
vt 0.367323 0.505505
vt 0.373277 0.505037
vt 0.377592 0.494958
vt 0.384589 0.489989
vt 0.384776 0.494892
vt 0.379107 0.498314
vt 0.380405 0.510432
vt 0.379793 0.505037
vt 0.385289 0.505480
vt 0.385424 0.510432
vt 0.614566 0.744594
vt 0.614568 0.739576
vt 0.619519 0.739708
vt 0.619963 0.745207
vt 0.630106 0.740219
vt 0.635008 0.740405
vt 0.630042 0.747408
vt 0.626686 0.745893
vt 0.614563 0.755411
vt 0.619963 0.751723
vt 0.619495 0.757677
vt 0.614562 0.760429
vt 0.380405 0.739568
vt 0.385424 0.739568
vt 0.385289 0.744520
vt 0.379793 0.744963
vt 0.384782 0.755091
vt 0.382486 0.759956
vt 0.379490 0.751329
vt 0.369586 0.739568
vt 0.373277 0.744963
vt 0.367323 0.744495
vt 0.364568 0.739568
vt 0.618141 0.259011
vt 0.614567 0.260424
vt 0.614568 0.255405
vt 0.618345 0.253236
vt 0.614568 0.244586
vt 0.614568 0.239568
vt 0.618118 0.240998
vt 0.618345 0.246720
vt 0.623585 0.253596
vt 0.621787 0.249394
vt 0.623530 0.246327
vt 0.625035 0.249961
vt 0.126470 0.510432
vt 0.125000 0.510432
vt 0.125889 0.507464
vt 0.128212 0.507021
vt 0.131882 0.501470
vt 0.135534 0.499930
vt 0.135513 0.501423
vt 0.131655 0.503395
vt 0.131882 0.510432
vt 0.131655 0.506655
vt 0.135479 0.506859
vt 0.135432 0.510432
vt 0.618118 0.010457
vt 0.614568 0.010432
vt 0.614568 0.006882
vt 0.618345 0.006655
vt 0.614568 0.001470
vt 0.614568 0.000000
vt 0.617536 0.000889
vt 0.617979 0.003212
vt 0.623530 0.010468
vt 0.621604 0.006655
vt 0.623530 0.006882
vt 0.625000 0.010467
vt 0.131882 0.739568
vt 0.135432 0.739568
vt 0.135479 0.743141
vt 0.131655 0.743345
vt 0.135565 0.750071
vt 0.131882 0.748530
vt 0.131655 0.746605
vt 0.126470 0.739580
vt 0.128395 0.743345
vt 0.126470 0.743118
vt 0.125000 0.739605
vt 0.383353 0.000000
vt 0.385432 0.001470
vt 0.385432 0.010432
vt 0.385432 0.006882
vt 0.385426 0.260435
vt 0.385432 0.255412
vt 0.385432 0.239568
vt 0.385432 0.244588
vt 0.625071 0.989426
vt 0.623577 0.989473
vt 0.614567 0.989567
vt 0.618141 0.989521
vt 0.864565 0.510427
vt 0.864565 0.739573
vt 0.383346 0.989564
s 0
usemtl Material
f 1/1/1 2/2/1 3/3/1 4/4/1
f 5/5/2 6/6/2 7/7/2 8/8/2
f 9/9/3 10/10/3 11/11/3 12/12/3
f 13/13/4 14/14/4 15/15/4 16/16/4
f 17/17/5 18/18/5 19/19/5 20/20/5
f 21/21/6 22/22/6 23/23/6 24/24/6
f 25/25/7 26/26/7 27/27/7 28/28/7
f 29/29/8 30/30/8 31/31/8 32/32/8
f 33/33/9 34/34/9 35/35/9 36/36/9
f 37/37/10 38/38/10 39/39/10 40/40/10
f 41/41/11 42/42/11 43/43/11
f 44/44/12 45/45/12 46/46/12 47/47/12
f 48/48/13 49/49/13 50/50/13 51/51/13
f 52/52/14 53/53/14 54/54/14 55/55/14
f 56/56/15 57/57/15 58/58/15 59/59/15
f 60/60/16 61/61/16 62/62/16 63/63/16
f 64/64/17 65/65/17 66/66/17 67/67/17
f 68/68/18 69/69/18 70/70/18 71/71/18
f 72/72/19 73/73/19 74/74/19 75/75/19
f 76/76/20 77/77/20 78/78/20 79/79/20
f 80/80/21 81/81/21 82/82/21 83/83/21
f 84/84/22 85/85/22 86/86/22 87/87/22
f 88/88/23 89/89/23 90/90/23
f 91/91/24 92/92/24 93/93/24 94/94/24
f 9/9/25 1/1/25 4/4/25 10/10/25
f 3/3/26 5/5/26 8/8/26 4/4/26
f 7/7/27 11/11/27 10/10/27 8/8/27
f 21/21/28 13/13/28 16/16/28 22/22/28
f 15/15/29 17/17/29 20/20/29 16/16/29
f 19/19/30 23/23/30 22/22/30 20/20/30
f 33/33/31 25/25/31 28/28/31 34/34/31
f 27/27/32 29/29/32 32/32/32 28/28/32
f 31/31/33 35/35/33 34/34/33 32/32/33
f 44/44/34 37/37/34 40/40/34 45/45/34
f 39/39/35 41/41/35 43/43/35 40/40/35
f 42/42/36 46/46/36 45/45/36 43/43/36
f 56/56/37 48/48/37 51/51/37 57/57/37
f 50/50/38 52/52/38 55/55/38 51/51/38
f 54/54/39 58/58/39 57/57/39 55/55/39
f 68/68/40 60/60/40 63/63/40 69/69/40
f 62/62/41 64/64/41 67/67/41 63/63/41
f 66/66/42 70/70/42 69/69/42 67/67/42
f 80/80/43 72/72/43 75/75/43 81/81/43
f 74/74/44 76/76/44 79/79/44 75/75/44
f 78/78/45 82/82/45 81/81/45 79/79/45
f 91/91/46 84/84/46 87/87/46 92/92/46
f 86/86/47 88/88/47 90/90/47 87/87/47
f 89/89/48 93/93/48 92/92/48 90/90/48
f 71/71/49 85/85/49 84/84/49 68/68/49
f 94/94/50 61/61/50 60/60/50 91/91/50
f 14/14/51 71/71/51 70/70/51 15/15/51
f 65/65/52 18/18/52 17/17/52 66/66/52
f 12/12/53 24/24/53 23/23/53 9/9/53
f 18/18/54 2/2/54 1/1/54 19/19/54
f 88/95/55 77/77/55 76/76/55 89/96/55
f 73/73/56 94/97/56 93/98/56 74/74/56
f 36/36/57 42/42/57 41/41/57 33/33/57
f 38/38/58 26/26/58 25/25/58 39/39/58
f 49/49/59 65/99/59 64/100/59 50/50/59
f 61/101/60 53/53/60 52/52/60 62/102/60
f 30/30/61 83/103/61 82/104/61 31/31/61
f 77/105/62 36/36/62 35/35/62 78/106/62
f 6/6/63 30/30/63 29/29/63 7/7/63
f 26/26/64 12/12/64 11/11/64 27/27/64
f 85/85/65 47/47/65 46/46/65 86/86/65
f 83/83/66 59/59/66 58/58/66 80/80/66
f 53/53/67 73/73/67 72/72/67 54/54/67
f 59/59/68 6/6/68 5/5/68 56/56/68
f 2/2/69 49/49/69 48/48/69 3/3/69
f 47/47/70 14/14/70 13/13/70 44/44/70
f 24/24/71 38/38/71 37/37/71 21/21/71
f 9/9/72 23/23/72 19/19/72 1/1/72
f 4/4/73 8/8/73 10/10/73
f 65/99/74 49/49/74 2/2/74 18/18/74
f 56/56/75 5/5/75 3/3/75 48/48/75
f 7/7/76 29/29/76 27/27/76 11/11/76
f 6/6/77 59/107/77 83/108/77 30/30/77
f 24/24/78 12/12/78 26/26/78 38/38/78
f 44/44/79 13/13/79 21/21/79 37/37/79
f 16/16/80 20/20/80 22/22/80
f 15/15/81 70/70/81 66/66/81 17/17/81
f 71/71/82 14/14/82 47/47/82 85/85/82
f 33/33/83 41/41/83 39/39/83 25/25/83
f 28/28/84 32/32/84 34/34/84
f 31/31/85 82/104/85 78/106/85 35/35/85
f 42/42/86 36/36/86 77/105/86 88/109/86
f 40/40/87 43/43/87 45/45/87
f 86/86/88 46/46/88 42/42/88 88/88/88
f 51/51/89 55/55/89 57/57/89
f 50/50/90 64/100/90 62/102/90 52/52/90
f 94/97/91 73/73/91 53/53/91 61/101/91
f 80/80/92 58/58/92 54/54/92 72/72/92
f 68/68/93 84/84/93 91/91/93 60/60/93
f 63/63/94 67/67/94 69/69/94
f 75/75/95 79/79/95 81/81/95
f 89/96/96 76/76/96 74/74/96 93/98/96
f 87/87/97 90/90/97 92/92/97
